<?xml version="1.0" encoding="UTF-8" standalone="no"?>
<!-- Generator: Adobe Illustrator 18.0.0, SVG Export Plug-In . SVG Version: 6.00 Build 0)  -->

<svg
   version="1.1"
   id="Capa_1"
   x="0px"
   y="0px"
   viewBox="0 0 217.499 217.499"
   style="enable-background:new 0 0 217.499 217.499;"
   xml:space="preserve"
   sodipodi:docname="bluetooth-svgrepo-co.svg"
   inkscape:export-filename="bluetooth-active.svg"
   inkscape:export-xdpi="96"
   inkscape:export-ydpi="96"
   inkscape:version="1.2.1 (9c6d41e410, 2022-07-14, custom)"
   xmlns:inkscape="http://www.inkscape.org/namespaces/inkscape"
   xmlns:sodipodi="http://sodipodi.sourceforge.net/DTD/sodipodi-0.dtd"
   xmlns:xlink="http://www.w3.org/1999/xlink"
   xmlns="http://www.w3.org/2000/svg"
   xmlns:svg="http://www.w3.org/2000/svg"><defs
   id="defs5214"><radialGradient
     inkscape:collect="always"
     xlink:href="#linearGradient4993"
     id="radialGradient4995"
     cx="-439.89572"
     cy="446.5134"
     fx="-439.89572"
     fy="446.5134"
     r="137.64265"
     gradientUnits="userSpaceOnUse"
     gradientTransform="matrix(0.78368165,0,0,0.78368165,453.48769,-241.17484)" /><linearGradient
     inkscape:collect="always"
     id="linearGradient4993"><stop
       style="stop-color:#cad3f5;stop-opacity:0.30417296;"
       offset="0"
       id="stop4989" /><stop
       style="stop-color:#cad3f5;stop-opacity:0;"
       offset="1"
       id="stop4991" /></linearGradient></defs><sodipodi:namedview
   id="namedview5212"
   pagecolor="#505050"
   bordercolor="#eeeeee"
   borderopacity="1"
   inkscape:showpageshadow="0"
   inkscape:pageopacity="0"
   inkscape:pagecheckerboard="0"
   inkscape:deskcolor="#505050"
   showgrid="false"
   inkscape:zoom="1.4255989"
   inkscape:cx="165.19373"
   inkscape:cy="70.847417"
   inkscape:window-width="1912"
   inkscape:window-height="1009"
   inkscape:window-x="0"
   inkscape:window-y="40"
   inkscape:window-maximized="1"
   inkscape:current-layer="Capa_1" />

<g
   id="g5181">
</g>
<g
   id="g5183">
</g>
<g
   id="g5185">
</g>
<g
   id="g5187">
</g>
<g
   id="g5189">
</g>
<g
   id="g5191">
</g>
<g
   id="g5193">
</g>
<g
   id="g5195">
</g>
<g
   id="g5197">
</g>
<g
   id="g5199">
</g>
<g
   id="g5201">
</g>
<g
   id="g5203">
</g>
<g
   id="g5205">
</g>
<g
   id="g5207">
</g>
<g
   id="g5209">
</g>
<circle
   style="fill:url(#radialGradient4995);fill-opacity:1;stroke:none;stroke-width:0;stroke-linecap:round;stroke-linejoin:round;stroke-miterlimit:32.5;stroke-opacity:1;paint-order:stroke fill markers"
   id="path2386"
   cx="108.7495"
   cy="108.7495"
   r="107.86802" /><path
   d="m 121.26453,108.7478 45.597,-44.487997 c 1.736,-1.693 2.715,-4.016 2.715,-6.441 0,-2.425 -0.979,-4.748 -2.715,-6.441 l -50.038,-48.82 c -2.591,-2.52799997 -6.444,-3.25499997 -9.78,-1.85299997 -3.336,1.40599997 -5.505,4.67399997 -5.505,8.29399997 v 80.504 l -42.331003,-41.3 c -3.558,-3.471 -9.255,-3.402 -12.727,0.156 -3.471,3.558 -3.401,9.256 0.157,12.727 l 48.851,47.662997 -48.851,47.66301 c -3.558,3.471 -3.628,9.169 -0.157,12.727 3.471,3.558 9.17,3.628 12.727,0.156 L 101.53853,127.9948 v 80.50401 c 0,3.62 2.169,6.888 5.505,8.294 1.128,0.476 2.315,0.706 3.493,0.706 2.305,0 4.572,-0.886 6.287,-2.559 l 50.038,-48.82 c 1.736,-1.693 2.715,-4.016 2.715,-6.441 0,-2.425 -0.979,-4.748 -2.715,-6.441 z m -1.725,-78.394997 28.15,27.465 -28.15,27.465 z m 0,156.789007 v -54.93 l 28.15,27.465 z"
   id="path2332"
   style="display:inline;fill:#8aadf4" /><rect
   style="fill:#cad3f5;stroke:none;stroke-width:0;stroke-linecap:round;stroke-linejoin:round;stroke-miterlimit:32.5;stroke-opacity:1;paint-order:stroke fill markers"
   id="rect5049"
   width="45.775463"
   height="19.732513"
   x="159.86176"
   y="98.88324"
   ry="5.2532401" /><rect
   style="fill:#cad3f5;stroke:none;stroke-width:0;stroke-linecap:round;stroke-linejoin:round;stroke-miterlimit:32.5;stroke-opacity:1;paint-order:stroke fill markers"
   id="rect5051"
   width="44.762318"
   height="19.732513"
   x="14.36834"
   y="98.88324"
   ry="5.2532401" /></svg>
