<?xml version="1.0" encoding="UTF-8" standalone="no"?>
<!-- Generator: Adobe Illustrator 18.0.0, SVG Export Plug-In . SVG Version: 6.00 Build 0)  -->

<svg
   version="1.1"
   id="Capa_1"
   x="0px"
   y="0px"
   viewBox="0 0 217.499 217.499"
   style="enable-background:new 0 0 217.499 217.499;"
   xml:space="preserve"
   sodipodi:docname="bluetooth-svg-com.svg"
   inkscape:export-filename="bluetooth-svgreo.svg"
   inkscape:export-xdpi="96"
   inkscape:export-ydpi="96"
   inkscape:version="1.2.1 (9c6d41e410, 2022-07-14, custom)"
   xmlns:inkscape="http://www.inkscape.org/namespaces/inkscape"
   xmlns:sodipodi="http://sodipodi.sourceforge.net/DTD/sodipodi-0.dtd"
   xmlns="http://www.w3.org/2000/svg"
   xmlns:svg="http://www.w3.org/2000/svg"><defs
   id="defs166" /><sodipodi:namedview
   id="namedview164"
   pagecolor="#505050"
   bordercolor="#eeeeee"
   borderopacity="1"
   inkscape:showpageshadow="0"
   inkscape:pageopacity="0"
   inkscape:pagecheckerboard="0"
   inkscape:deskcolor="#505050"
   showgrid="false"
   inkscape:zoom="2.8511978"
   inkscape:cx="56.818226"
   inkscape:cy="113.81182"
   inkscape:window-width="1908"
   inkscape:window-height="1028"
   inkscape:window-x="6"
   inkscape:window-y="46"
   inkscape:window-maximized="0"
   inkscape:current-layer="Capa_1" />
<g
   id="g131"
   style="fill:#6e738d"
   transform="translate(-2)">
	<path
   d="m 123.264,108.749 45.597,-44.488 c 1.736,-1.693 2.715,-4.016 2.715,-6.441 0,-2.425 -0.979,-4.748 -2.715,-6.441 L 118.823,2.559 c -2.591,-2.528 -6.444,-3.255 -9.78,-1.853 -3.336,1.406 -5.505,4.674 -5.505,8.294 v 80.504 l -42.331,-41.3 c -3.558,-3.471 -9.255,-3.402 -12.727,0.156 -3.471,3.558 -3.401,9.256 0.157,12.727 l 48.851,47.663 -48.851,47.663 c -3.558,3.471 -3.628,9.169 -0.157,12.727 3.471,3.558 9.17,3.628 12.727,0.156 l 42.331,-41.3 V 208.5 c 0,3.62 2.169,6.888 5.505,8.294 1.128,0.476 2.315,0.706 3.493,0.706 2.305,0 4.572,-0.886 6.287,-2.559 l 50.038,-48.82 c 1.736,-1.693 2.715,-4.016 2.715,-6.441 0,-2.425 -0.979,-4.748 -2.715,-6.441 z m -1.725,-78.395 28.15,27.465 -28.15,27.465 v -54.93 z m 0,156.789 v -54.93 l 28.15,27.465 z"
   id="path129"
   style="fill:#6e738d" />
</g>
<g
   id="g133">
</g>
<g
   id="g135">
</g>
<g
   id="g137">
</g>
<g
   id="g139">
</g>
<g
   id="g141">
</g>
<g
   id="g143">
</g>
<g
   id="g145">
</g>
<g
   id="g147">
</g>
<g
   id="g149">
</g>
<g
   id="g151">
</g>
<g
   id="g153">
</g>
<g
   id="g155">
</g>
<g
   id="g157">
</g>
<g
   id="g159">
</g>
<g
   id="g161">
</g>
</svg>
