<?xml version="1.0" encoding="UTF-8" standalone="no"?>
<!-- Created with Inkscape (http://www.inkscape.org/) -->

<svg
   width="210mm"
   height="210mm"
   viewBox="0 0 210 210"
   version="1.1"
   id="svg309"
   inkscape:version="1.2.1 (9c6d41e410, 2022-07-14, custom)"
   sodipodi:docname="buds ink file.svg"
   xml:space="preserve"
   inkscape:export-filename="buds pl.svg"
   inkscape:export-xdpi="96"
   inkscape:export-ydpi="96"
   xmlns:inkscape="http://www.inkscape.org/namespaces/inkscape"
   xmlns:sodipodi="http://sodipodi.sourceforge.net/DTD/sodipodi-0.dtd"
   xmlns="http://www.w3.org/2000/svg"
   xmlns:svg="http://www.w3.org/2000/svg"><sodipodi:namedview
     id="namedview311"
     pagecolor="#505050"
     bordercolor="#eeeeee"
     borderopacity="1"
     inkscape:showpageshadow="0"
     inkscape:pageopacity="0"
     inkscape:pagecheckerboard="0"
     inkscape:deskcolor="#505050"
     inkscape:document-units="mm"
     showgrid="false"
     inkscape:zoom="0.39063903"
     inkscape:cx="465.90327"
     inkscape:cy="500.46203"
     inkscape:window-width="943"
     inkscape:window-height="1020"
     inkscape:window-x="6"
     inkscape:window-y="46"
     inkscape:window-maximized="0"
     inkscape:current-layer="layer2"
     inkscape:lockguides="true" /><defs
     id="defs306" /><g
     inkscape:groupmode="layer"
     id="layer2"
     inkscape:label="Layer 2"><path
       style="fill:#363a4f;stroke:#cad3f5;stroke-width:4.52315;stroke-linecap:butt;stroke-linejoin:miter;stroke-dasharray:none;stroke-opacity:1"
       d="m 55.188338,71.988272 10.118397,79.007888 c 0,0 2.130607,10.00412 13.675273,8.01468 11.54465,-1.98947 10.716205,-11.59521 10.716205,-11.59521 L 80.811606,71.935414 c 0,0 -2.158088,-8.216616 15.176101,-22.52237 C 113.32196,35.107278 99.705057,8.5225151 85.200371,4.0223451 70.695701,-0.47780911 32.551876,2.3883691 35.051809,30.39599 37.551774,58.403626 52.826354,64.839919 55.188383,71.988266 Z"
       id="path1588"
       sodipodi:nodetypes="ccsccssssc" /><path
       style="fill:#5b6078;stroke:#cad3f5;stroke-width:4.52315;stroke-linecap:butt;stroke-linejoin:miter;stroke-dasharray:none;stroke-opacity:1"
       d="m 52.459323,38.487709 c 0,0 -5.463098,-22.117473 -16.290166,-19.832641 C 25.342045,20.939906 6.7955144,27.182599 8.4653154,45.711773 11.019595,74.055989 26.747105,75.320763 43.90645,68.827831 61.065824,62.334896 56.247943,52.464206 52.459323,38.487709 Z"
       id="path1688"
       sodipodi:nodetypes="csssc" /><path
       style="fill:#363a4f;stroke:#cad3f5;stroke-width:4.52315;stroke-linecap:butt;stroke-linejoin:miter;stroke-dasharray:none;stroke-opacity:1"
       d="m 152.31314,122.69635 -17.28435,77.75526 c 0,0 -3.03443,9.76803 -14.34944,6.73359 -11.31499,-3.0344 -9.61365,-12.5245 -9.61365,-12.5245 l 15.73585,-74.35468 c 0,0 2.89871,-7.98545 -13.05805,-23.813004 -15.956783,-15.82756 0.0289,-41.059142 14.88351,-44.217236 14.85473,-3.158081 52.578,3.176126 47.53327,30.838866 -5.04477,27.662754 -20.84285,32.678664 -23.8472,39.581704 z"
       id="path1700"
       sodipodi:nodetypes="ccsccssssc" /><path
       style="fill:#5b6078;stroke:#cad3f5;stroke-width:4.52315;stroke-linecap:butt;stroke-linejoin:miter;stroke-dasharray:none;stroke-opacity:1"
       d="m 158.08712,89.584474 c 0,0 7.45817,-21.526815 18.03162,-18.263724 10.57353,3.2631 28.47317,11.171818 25.11985,29.47138 -5.12958,27.99297 -20.90687,27.81759 -37.40228,19.78625 -16.49544,-8.03137 -10.79713,-17.42133 -5.74919,-30.993906 z"
       id="path1702"
       sodipodi:nodetypes="csssc" /></g></svg>
