<?xml version="1.0" encoding="UTF-8" standalone="no"?>
<!-- Created with Inkscape (http://www.inkscape.org/) -->

<svg
   width="210mm"
   height="210mm"
   viewBox="0 0 210 210"
   version="1.1"
   id="svg309"
   sodipodi:docname="genric bt device file.svg"
   inkscape:export-filename="genric bt device pl plain.svg"
   inkscape:export-xdpi="96"
   inkscape:export-ydpi="96"
   inkscape:version="1.2.1 (9c6d41e410, 2022-07-14, custom)"
   xmlns:inkscape="http://www.inkscape.org/namespaces/inkscape"
   xmlns:sodipodi="http://sodipodi.sourceforge.net/DTD/sodipodi-0.dtd"
   xmlns="http://www.w3.org/2000/svg"
   xmlns:svg="http://www.w3.org/2000/svg">
  <sodipodi:namedview
     id="namedview8"
     pagecolor="#505050"
     bordercolor="#eeeeee"
     borderopacity="1"
     inkscape:showpageshadow="0"
     inkscape:pageopacity="0"
     inkscape:pagecheckerboard="0"
     inkscape:deskcolor="#505050"
     inkscape:document-units="mm"
     showgrid="false"
     inkscape:zoom="0.1381188"
     inkscape:cx="-3482.5093"
     inkscape:cy="1951.2188"
     inkscape:window-width="1908"
     inkscape:window-height="1028"
     inkscape:window-x="6"
     inkscape:window-y="46"
     inkscape:window-maximized="0"
     inkscape:current-layer="svg309" />
  <defs
     id="defs306" />
  <g
     id="layer2"
     transform="matrix(0.89751036,0,0,0.94229983,10.761413,6.0585175)"
     style="stroke-width:17.5763;stroke-dasharray:none">
    <rect
       style="fill:#5b6078;stroke:#b8c0e0;stroke-width:17.5763;stroke-linecap:round;stroke-linejoin:round;stroke-miterlimit:32.5;stroke-dasharray:none;stroke-opacity:1;paint-order:stroke fill markers"
       id="rect589"
       width="163.42007"
       height="204.96547"
       x="23.289963"
       y="2.5172653"
       ry="55.555218" />
    <path
       d="m 123.264,108.749 45.597,-44.488 c 1.736,-1.693 2.715,-4.016 2.715,-6.441 0,-2.425 -0.979,-4.748 -2.715,-6.441 L 118.823,2.559 c -2.591,-2.528 -6.444,-3.255 -9.78,-1.853 -3.336,1.406 -5.505,4.674 -5.505,8.294 v 80.504 l -42.331,-41.3 c -3.558,-3.471 -9.255,-3.402 -12.727,0.156 -3.471,3.558 -3.401,9.256 0.157,12.727 l 48.851,47.663 -48.851,47.663 c -3.558,3.471 -3.628,9.169 -0.157,12.727 3.471,3.558 9.17,3.628 12.727,0.156 l 42.331,-41.3 V 208.5 c 0,3.62 2.169,6.888 5.505,8.294 1.128,0.476 2.315,0.706 3.493,0.706 2.305,0 4.572,-0.886 6.287,-2.559 l 50.038,-48.82 c 1.736,-1.693 2.715,-4.016 2.715,-6.441 0,-2.425 -0.979,-4.748 -2.715,-6.441 z m -1.725,-78.395 28.15,27.465 -28.15,27.465 z m 0,156.789 v -54.93 l 28.15,27.465 z"
       id="path129"
       style="fill:#cad3f5"
       transform="matrix(0.91386857,0,0,0.8704305,1.4905754,10.340083)" />
  </g>
</svg>
