<?xml version="1.0" encoding="UTF-8" standalone="no"?>
<!-- Created with Inkscape (http://www.inkscape.org/) -->

<svg
   width="210mm"
   height="210mm"
   viewBox="0 0 210 210"
   version="1.1"
   id="svg309"
   inkscape:version="1.2.1 (9c6d41e410, 2022-07-14, custom)"
   sodipodi:docname="headphones thicker file.svg"
   xml:space="preserve"
   inkscape:export-filename="headphones t pl.svg"
   inkscape:export-xdpi="96"
   inkscape:export-ydpi="96"
   xmlns:inkscape="http://www.inkscape.org/namespaces/inkscape"
   xmlns:sodipodi="http://sodipodi.sourceforge.net/DTD/sodipodi-0.dtd"
   xmlns="http://www.w3.org/2000/svg"
   xmlns:svg="http://www.w3.org/2000/svg"><sodipodi:namedview
     id="namedview311"
     pagecolor="#505050"
     bordercolor="#eeeeee"
     borderopacity="1"
     inkscape:showpageshadow="0"
     inkscape:pageopacity="0"
     inkscape:pagecheckerboard="0"
     inkscape:deskcolor="#505050"
     inkscape:document-units="mm"
     showgrid="false"
     inkscape:zoom="0.39063903"
     inkscape:cx="378.86639"
     inkscape:cy="441.58414"
     inkscape:window-width="943"
     inkscape:window-height="1020"
     inkscape:window-x="6"
     inkscape:window-y="46"
     inkscape:window-maximized="0"
     inkscape:current-layer="layer2"
     inkscape:lockguides="false"
     showguides="false" /><defs
     id="defs306" /><g
     inkscape:groupmode="layer"
     id="layer2"
     inkscape:label="Layer 2"><g
       id="g3717"
       transform="matrix(0.99163781,0,0,0.99163781,0.87400961,1.2428517)"><path
         style="fill:none;stroke:#a5adcb;stroke-width:6.08542;stroke-linecap:round;stroke-linejoin:miter;stroke-dasharray:none;stroke-opacity:1;paint-order:fill markers stroke"
         d="m 195.33753,89.767429 c 0,0 0.0549,6.307143 -0.68286,15.250101"
         id="path1416"
         sodipodi:nodetypes="cc"
         inkscape:label="connector R" /><path
         style="fill:none;stroke:#a5adcb;stroke-width:6.08542;stroke-linecap:round;stroke-linejoin:miter;stroke-dasharray:none;stroke-opacity:1;paint-order:fill markers stroke"
         d="m 15.133097,89.767429 c 0,0 -0.05493,6.307143 0.682861,15.250101"
         id="path1412"
         sodipodi:nodetypes="cc"
         inkscape:label="connector L" /><path
         style="color:#000000;fill:#8087a2;stroke:#cad3f5;stroke-width:3.96875;stroke-dasharray:none"
         d="M 106.47332,0.73125281 C 59.181944,0.64849891 32.865941,24.814363 20.039087,48.53737 7.2122332,72.260374 7.6331135,93.220763 7.6331135,93.220763 l 15.0006345,0.462612 c 0,0 -0.340772,-17.75941 10.606911,-38.006927 10.947682,-20.247523 30.826397,-40.013043 73.206981,-39.938857 41.18575,0.07208 60.3252,19.785448 70.86533,40.050227 10.54011,20.26477 10.05578,38.046906 10.05578,38.046906 l 15.00349,-0.354099 c 0,0 0.59978,-20.886204 -11.74347,-44.617713 C 178.28553,25.131401 152.69097,0.81214986 106.47332,0.73125281 Z"
         id="path2017"
         sodipodi:nodetypes="csccsssccsc" /><path
         id="rect1410"
         style="fill:#939ab7;stroke:#b8c0e0;stroke-width:3.96875;stroke-linecap:round;stroke-linejoin:round;stroke-miterlimit:32.5;stroke-dasharray:none;paint-order:normal"
         inkscape:label="pod in L"
         d="m 36.3899,107.34079 c 4.405785,-2.45976 10.337272,-0.16884 13.299303,5.13658 l 36.643684,65.63418 c 2.96203,5.30542 1.799732,11.55682 -2.606053,14.01658 -4.405784,2.45976 -10.337276,0.16884 -13.299306,-5.13659 L 33.783843,121.35737 c -2.96203,-5.30543 -1.799727,-11.55682 2.606057,-14.01658 z" /><path
         id="rect1408"
         style="fill:#6e738d;stroke:#cad3f5;stroke-width:3.96875;stroke-linecap:round;stroke-linejoin:round;stroke-miterlimit:32.5;stroke-dasharray:none;paint-order:normal"
         inkscape:label="pod out L"
         transform="rotate(-29.174707)"
         d="m -41.069565,104.23174 c 6.392694,0 11.539158,5.50148 11.539158,12.33515 v 85.41583 c 0,6.83367 -5.146464,12.33514 -11.539158,12.33514 -6.392693,0 -11.539158,-5.50147 -11.539158,-12.33514 v -85.41583 c 0,-6.83367 5.146465,-12.33515 11.539158,-12.33515 z" /><path
         id="rect2024"
         style="fill:#939ab7;stroke:#b8c0e0;stroke-width:3.96875;stroke-linecap:round;stroke-linejoin:round;stroke-miterlimit:32.5;stroke-dasharray:none;paint-order:normal"
         inkscape:label="pod in L"
         d="m 173.55555,107.33947 c -4.40579,-2.45976 -10.33728,-0.16884 -13.29931,5.13659 l -36.64368,65.63417 c -2.96203,5.30542 -1.79974,11.55682 2.60605,14.01658 4.40578,2.45976 10.33728,0.16883 13.2993,-5.13659 l 36.64369,-65.63417 c 2.96203,-5.30543 1.79973,-11.55682 -2.60605,-14.01658 z" /><path
         id="rect1418"
         style="fill:#6e738d;stroke:#cad3f5;stroke-width:3.96875;stroke-linecap:round;stroke-linejoin:round;stroke-miterlimit:32.5;stroke-dasharray:none;paint-order:normal"
         inkscape:label="pod out R"
         transform="matrix(-0.87313736,-0.48747426,-0.48747426,0.87313736,0,0)"
         d="m -224.45678,1.8474745 c 6.39269,0 11.53915,5.5014738 11.53915,12.3351435 v 85.415834 c 0,6.833668 -5.14646,12.335148 -11.53915,12.335148 -6.3927,0 -11.53916,-5.50148 -11.53916,-12.335148 V 14.182618 c 0,-6.8336697 5.14646,-12.3351435 11.53916,-12.3351435 z" /></g></g></svg>
