<?xml version="1.0" encoding="UTF-8" standalone="no"?>
<!-- Created with Inkscape (http://www.inkscape.org/) -->

<svg
   width="78.726952mm"
   height="71.581612mm"
   viewBox="0 0 78.726952 71.581612"
   version="1.1"
   id="svg3303"
   xmlns="http://www.w3.org/2000/svg"
   xmlns:svg="http://www.w3.org/2000/svg">
  <defs
     id="defs3300" />
  <g
     id="layer1"
     transform="translate(-381.02593,-80.76542)">
    <g
       id="g2813"
       transform="matrix(3.2867883,0,0,3.2867883,982.73642,-758.77881)">
      <path
         style="fill:#363a4f;stroke:#939ab7;stroke-width:1px;stroke-linecap:butt;stroke-linejoin:round;stroke-opacity:1"
         d="m -177.09044,260.40643 c -1.5178,-7.97602 -3.04311,-3.28731 -4.07741,0.61774 -1.26719,4.78433 -2.47586,11.74633 0.21178,13.9342 2.68765,2.18788 17.60549,2.55309 20.05376,-0.22444 1.72219,-2.01116 1.79747,-9.16243 -0.28599,-14.76174 -1.04839,-2.81757 -2.84011,-7.59045 -4.03153,0.21462 -4.47282,-0.24807 -8.29736,-0.64548 -11.87061,0.21962 z"
         id="path2807" />
      <ellipse
         style="fill:#cad3f5;fill-opacity:1;stroke:none;stroke-width:0.751225;stroke-linecap:round;stroke-linejoin:round;stroke-miterlimit:32.5;paint-order:stroke fill markers"
         id="ellipse2809"
         cx="-177.11938"
         cy="264.88885"
         rx="0.71143615"
         ry="1.081754" />
      <ellipse
         style="fill:#cad3f5;fill-opacity:1;stroke:none;stroke-width:0.751225;stroke-linecap:round;stroke-linejoin:round;stroke-miterlimit:32.5;paint-order:stroke fill markers"
         id="ellipse2811"
         cx="-164.44536"
         cy="265.06265"
         rx="0.71143615"
         ry="1.081754" />
      <path
         id="path3222"
         style="fill:#ed8796;stroke-width:0.246018;stroke-linecap:round;stroke-linejoin:round;stroke-miterlimit:32.5;paint-order:stroke fill markers"
         d="m -171.8229,270.79626 h 1.38873 c 0.78768,0 1.64729,0.14198 1.64729,0.47569 v 0.10768 c 0,0.33373 -0.47295,0.78107 -1.23806,0.88626 -0.81336,0.11181 -1.50535,0.12665 -2.32652,-0.0281 -0.74678,-0.14076 -1.23147,-0.52442 -1.23147,-0.85814 v -0.10767 c 0,-0.33373 0.97235,-0.4757 1.76003,-0.4757 z" />
    </g>
  </g>
</svg>
