<?xml version="1.0" encoding="UTF-8" standalone="no"?>
<!-- Created with Inkscape (http://www.inkscape.org/) -->

<svg
   width="78.726952mm"
   height="71.581612mm"
   viewBox="0 0 78.726952 71.581612"
   version="1.1"
   id="svg3303"
   xmlns="http://www.w3.org/2000/svg"
   xmlns:svg="http://www.w3.org/2000/svg">
  <defs
     id="defs3300" />
  <g
     id="layer1"
     transform="translate(-491.59371,-85.65273)">
    <g
       id="g3064"
       transform="matrix(3.2867883,0,0,3.2867883,1093.3042,-753.8915)">
      <path
         style="fill:#363a4f;stroke:#939ab7;stroke-width:1px;stroke-linecap:butt;stroke-linejoin:round;stroke-opacity:1"
         d="m -177.09044,260.40643 c -1.5178,-7.97602 -3.04311,-3.28731 -4.07741,0.61774 -1.26719,4.78433 -2.47586,11.74633 0.21178,13.9342 2.68765,2.18788 17.60549,2.55309 20.05376,-0.22444 1.72219,-2.01116 1.79747,-9.16243 -0.28599,-14.76174 -1.04839,-2.81757 -2.84011,-7.59045 -4.03153,0.21462 -4.47282,-0.24807 -8.29736,-0.64548 -11.87061,0.21962 z"
         id="path3056" />
      <ellipse
         style="fill:#cad3f5;fill-opacity:1;stroke:none;stroke-width:0.751225;stroke-linecap:round;stroke-linejoin:round;stroke-miterlimit:32.5;paint-order:stroke fill markers"
         id="ellipse3058"
         cx="-177.11938"
         cy="264.88885"
         rx="0.71143615"
         ry="1.081754" />
      <ellipse
         style="fill:#cad3f5;fill-opacity:1;stroke:none;stroke-width:0.751225;stroke-linecap:round;stroke-linejoin:round;stroke-miterlimit:32.5;paint-order:stroke fill markers"
         id="ellipse3060"
         cx="-164.44536"
         cy="265.06265"
         rx="0.71143615"
         ry="1.081754" />
      <path
         id="rect3180-3"
         style="fill:#ed8796;stroke-width:0.408559;stroke-linecap:round;stroke-linejoin:round;stroke-miterlimit:32.5;paint-order:stroke fill markers"
         d="m -171.93073,269.73023 h 1.98314 c 1.12482,0 2.35236,0.27418 2.35236,0.91868 v 0.20794 c 0,0.64451 -0.67538,1.50846 -1.76798,1.71159 -1.16148,0.21594 -2.14967,0.2446 -3.32232,-0.0544 -1.06641,-0.27184 -1.75856,-1.01278 -1.75856,-1.65728 v -0.20794 c 0,-0.64451 1.38854,-0.91869 2.51336,-0.91869 z" />
    </g>
  </g>
</svg>
