<?xml version="1.0" encoding="UTF-8" standalone="no"?>
<!-- Created with Inkscape (http://www.inkscape.org/) -->

<svg
   width="78.726952mm"
   height="71.581612mm"
   viewBox="0 0 78.726952 71.581612"
   version="1.1"
   id="svg3303"
   xmlns="http://www.w3.org/2000/svg"
   xmlns:svg="http://www.w3.org/2000/svg">
  <defs
     id="defs3300">
    <clipPath
       clipPathUnits="userSpaceOnUse"
       id="clipPath3296">
      <path
         id="path3298"
         style="fill:#ed8796;fill-opacity:0.552682;stroke-width:0.793801;stroke-linecap:round;stroke-linejoin:round;stroke-miterlimit:32.5;stroke-dasharray:none;paint-order:stroke fill markers"
         d="m -169.24774,266.28749 c 1.8733,-0.75536 2.423,-0.0857 2.30739,2.02442 l -0.0789,1.44072 c -0.11562,2.11019 -0.30667,4.60654 -1.5622,5.27385 -1.33467,0.70941 -4.18156,0.77967 -5.52908,-0.20235 -1.22543,-0.89305 -1.14428,-3.64876 -1.14428,-5.76612 v -0.68314 c 0,-2.11736 1.03669,-2.55005 2.27167,-1.9759 0.69201,0.20818 2.47419,0.38897 3.73547,-0.11144 z" />
    </clipPath>
    <clipPath
       clipPathUnits="userSpaceOnUse"
       id="clipPath3292">
      <path
         id="path3294"
         style="fill:#ed8796;fill-opacity:0.552682;stroke-width:0.793801;stroke-linecap:round;stroke-linejoin:round;stroke-miterlimit:32.5;stroke-dasharray:none;paint-order:stroke fill markers"
         d="m -169.24774,266.28749 c 1.8733,-0.75536 2.423,-0.0857 2.30739,2.02442 l -0.0789,1.44072 c -0.11562,2.11019 -0.30667,4.60654 -1.5622,5.27385 -1.33467,0.70941 -4.18156,0.77967 -5.52908,-0.20235 -1.22543,-0.89305 -1.14428,-3.64876 -1.14428,-5.76612 v -0.68314 c 0,-2.11736 1.03669,-2.55005 2.27167,-1.9759 0.69201,0.20818 2.47419,0.38897 3.73547,-0.11144 z" />
    </clipPath>
  </defs>
  <g
     id="layer1"
     transform="translate(-798.38331,-84.11309)">
    <g
       id="g3234"
       transform="matrix(3.2867883,0,0,3.2867883,1400.0938,-755.43114)">
      <path
         style="fill:#4f3639;fill-opacity:1;stroke:#939ab7;stroke-width:1px;stroke-linecap:butt;stroke-linejoin:round;stroke-opacity:1"
         d="m -177.09044,260.40643 c -1.5178,-7.97602 -3.04311,-3.28731 -4.07741,0.61774 -1.26719,4.78433 -2.47586,11.74633 0.21178,13.9342 2.68765,2.18788 17.60549,2.55309 20.05376,-0.22444 1.72219,-2.01116 1.79747,-9.16243 -0.28599,-14.76174 -1.04839,-2.81757 -2.84011,-7.59045 -4.03153,0.21462 -4.47282,-0.24807 -8.29736,-0.64548 -11.87061,0.21962 z"
         id="path3226" />
      <ellipse
         style="fill:#cad3f5;fill-opacity:1;stroke:none;stroke-width:0.751225;stroke-linecap:round;stroke-linejoin:round;stroke-miterlimit:32.5;paint-order:stroke fill markers"
         id="ellipse3228"
         cx="-177.11938"
         cy="264.88885"
         rx="0.71143615"
         ry="1.081754" />
      <ellipse
         style="fill:#cad3f5;fill-opacity:1;stroke:none;stroke-width:0.751225;stroke-linecap:round;stroke-linejoin:round;stroke-miterlimit:32.5;paint-order:stroke fill markers"
         id="ellipse3230"
         cx="-164.44536"
         cy="265.06265"
         rx="0.71143615"
         ry="1.081754" />
      <path
         id="path3232"
         style="fill:#ed8796;stroke-width:0.793822;stroke-linecap:round;stroke-linejoin:round;stroke-miterlimit:32.5;paint-order:stroke fill markers"
         d="m -169.24774,266.28749 c 1.8733,-0.75536 2.423,-0.0857 2.30739,2.02442 l -0.0789,1.44072 c -0.11562,2.11019 -0.30667,4.60654 -1.5622,5.27385 -1.33467,0.70941 -4.18156,0.77967 -5.52908,-0.20235 -1.22543,-0.89305 -1.14428,-3.64876 -1.14428,-5.76612 v -0.68314 c 0,-2.11736 1.03669,-2.55005 2.27167,-1.9759 0.69201,0.20818 2.47419,0.38897 3.73547,-0.11144 z" />
      <path
         style="fill:#cad3f5;stroke:none;stroke-width:0.0804991px;stroke-linecap:butt;stroke-linejoin:miter;stroke-opacity:1"
         d="m -173.8652,265.82703 c 0,0 -0.0137,1.71524 0.29006,1.90132 0.30377,0.18608 0.48953,-1.93866 0.48953,-1.93866"
         id="path3240"
         clip-path="url(#clipPath3296)" />
      <path
         style="fill:#cad3f5;stroke:none;stroke-width:0.0804991px;stroke-linecap:butt;stroke-linejoin:miter;stroke-opacity:1"
         d="m -168.8742,265.66603 c 0,0 -0.0137,1.71524 0.29006,1.90132 0.30377,0.18608 0.48953,-1.93866 0.48953,-1.93866"
         id="path3253"
         clip-path="url(#clipPath3292)" />
    </g>
  </g>
</svg>
